<svg width="105" height="105" viewBox="0 0 105 105" fill="none" xmlns="http://www.w3.org/2000/svg">
<g clip-path="url(#clip0_83_226)">
<path d="M87.7538 2.90735C86.7432 2.90735 85.9238 3.72673 85.9238 4.73731V90.4018C85.9238 90.6858 85.99 90.9658 86.117 91.2202L91.0483 101.081C91.3582 101.701 91.9917 102.093 92.685 102.093C93.378 102.093 94.0115 101.701 94.3218 101.081L99.2527 91.2202C99.3797 90.9658 99.4459 90.6861 99.4459 90.4018V4.73731C99.4459 3.72673 98.6265 2.90735 97.6159 2.90735H87.7538ZM95.786 89.9692L92.685 96.1707L89.5838 89.9692V6.56728H95.786V89.9692Z" fill="white"/>
<path d="M101.34 15.9741V45.1674C101.34 46.178 102.159 46.9974 103.17 46.9974C104.181 46.9974 105 46.178 105 45.1674V15.9741C105 14.9635 104.181 14.1442 103.17 14.1442C102.159 14.1442 101.34 14.9635 101.34 15.9741Z" fill="white"/>
<path d="M62.0272 54.7493H15.6972C14.6866 54.7493 13.8672 55.569 13.8672 56.5796C13.8672 57.5902 14.6866 58.4092 15.6972 58.4092H62.0272C63.0378 58.4092 63.8572 57.5902 63.8572 56.5796C63.8572 55.569 63.0378 54.7493 62.0272 54.7493Z" fill="white"/>
<path d="M62.0272 81.8273H15.6972C14.6866 81.8273 13.8672 82.6466 13.8672 83.6572C13.8672 84.6678 14.6866 85.4872 15.6972 85.4872H62.0272C63.0378 85.4872 63.8572 84.6678 63.8572 83.6572C63.8572 82.6466 63.0378 81.8273 62.0272 81.8273Z" fill="white"/>
<path d="M62.0272 42.9956H15.6972C14.6866 42.9956 13.8672 43.815 13.8672 44.8256C13.8672 45.8362 14.6866 46.6555 15.6972 46.6555H62.0272C63.0378 46.6555 63.8572 45.8362 63.8572 44.8256C63.8572 43.815 63.0378 42.9956 62.0272 42.9956Z" fill="white"/>
<path d="M15.6972 34.903H43.2012C44.2117 34.903 45.0311 34.0833 45.0311 33.0727C45.0311 32.0621 44.2117 31.243 43.2012 31.243H15.6972C14.6866 31.243 13.8672 32.0621 13.8672 33.0727C13.8672 34.0833 14.6866 34.903 15.6972 34.903Z" fill="white"/>
<path d="M15.6972 23.1497H43.2012C44.2117 23.1497 45.0311 22.3306 45.0311 21.32C45.0311 20.3095 44.2117 19.4897 43.2012 19.4897H15.6972C14.6866 19.4897 13.8672 20.3095 13.8672 21.32C13.8672 22.3306 14.6866 23.1497 15.6972 23.1497Z" fill="white"/>
<path d="M1.82498 101.946H75.8995C76.9074 101.946 77.7244 101.129 77.7244 100.121V29.2112C77.7244 29.2086 77.7241 29.2062 77.7241 29.2039C77.7238 29.1451 77.7208 29.0865 77.7151 29.0293C77.7108 28.9848 77.7032 28.9412 77.6955 28.8976C77.6929 28.8827 77.6915 28.8674 77.6889 28.8524C77.6786 28.8012 77.6653 28.75 77.6506 28.6998C77.6486 28.6931 77.6473 28.6865 77.6453 28.6795C77.6297 28.6296 77.6114 28.5801 77.5921 28.5312C77.5894 28.5249 77.5874 28.5182 77.5851 28.5119C77.5662 28.466 77.5445 28.4218 77.5216 28.3782C77.5169 28.3692 77.5133 28.3593 77.5083 28.3503C77.487 28.3107 77.4631 28.2725 77.4391 28.2342C77.4311 28.2219 77.4242 28.2086 77.4162 28.1967C77.3932 28.1624 77.3676 28.1295 77.342 28.0966C77.3311 28.0823 77.3207 28.067 77.3094 28.0527C77.2778 28.0144 77.2439 27.9778 77.2087 27.9419C77.202 27.9349 77.1967 27.9276 77.1897 27.921L52.8565 3.58807C52.8143 3.54584 52.77 3.50626 52.7245 3.46869C52.7125 3.45904 52.6995 3.4504 52.6876 3.44109C52.6526 3.41382 52.6174 3.38655 52.5811 3.36227C52.5705 3.35529 52.5589 3.34897 52.5479 3.34199C52.5086 3.31672 52.4687 3.29211 52.4278 3.26983C52.4205 3.26584 52.4122 3.26284 52.4049 3.25885C52.3593 3.23524 52.3134 3.21263 52.2662 3.19334C52.2609 3.19102 52.2556 3.18935 52.2506 3.18736C52.2007 3.16707 52.1498 3.14878 52.0986 3.13282C52.0926 3.13116 52.087 3.13016 52.081 3.1285C52.0301 3.1132 51.9782 3.0999 51.9257 3.08926C51.9114 3.0866 51.8961 3.08527 51.8818 3.08261C51.8376 3.07496 51.7934 3.06698 51.7488 3.06266C51.6886 3.05634 51.6278 3.05334 51.5666 3.05334H1.82498C0.81705 3.05368 0 3.87073 0 4.87865V100.121C0 101.129 0.81705 101.946 1.82498 101.946ZM71.4943 27.3869L53.3929 27.3889L53.3919 9.28513L71.4943 27.3869ZM3.64995 6.70396H49.7416L49.7429 29.2142C49.7429 29.6984 49.9351 30.1626 50.2773 30.5048C50.6195 30.8467 51.084 31.0389 51.5679 31.0389L74.0748 31.0362V98.296H3.64995V6.70396Z" fill="white"/>
</g>
<defs>
<clipPath id="clip0_83_226">
<rect width="105" height="105" fill="white"/>
</clipPath>
</defs>
</svg>
