<svg width="145" height="145" viewBox="0 0 145 145" fill="none" xmlns="http://www.w3.org/2000/svg">
<path d="M98.445 26.9415L87.7128 25.5763L88.7897 23.7895L92.258 17.8389L82.8653 11.0863L79.0686 10.0613L72.1454 2.15322L62.6345 2.42928L58.444 1.11536L54.6734 5.54232L54.4766 9.43111L49.6815 15.6053L50.0624 19.9536L45.5825 29.5828L42.5615 43.2061L45.7927 50.9307L44.0064 62.8062L41.9569 64.4352L40.3413 84.0224L40.9453 88.2392L40.0518 92.6137L43.3233 102.309L40.7088 117.574L38.2131 121.002L42.2068 125.469L43.717 131.131L53.176 131.959L50.8114 126.336L55.0147 117.771L59.4947 113.567L54.6734 104.831L61.8197 97.7768L64.3555 89.842L62.4242 87.6876L62.0824 83.3917L69.7808 83.7068L74.3918 75.1814L87.8701 72.4224L91.5882 67.1283L90.4717 61.0985L86.6353 57.1969L89.7355 40.5258L98.8789 29.977L106.131 26.3643L106.787 20.1968L103.133 20.1455L102.617 23.8731L98.445 26.9415ZM53.2937 132.47L53.1604 142.818L62.7973 143.885L63.2334 142.818L60.0635 141.84L55.3789 137.41L53.2937 132.47Z" fill="white"/>
</svg>
